<svg width="94" height="88" viewBox="0 0 94 88" fill="none" xmlns="http://www.w3.org/2000/svg">
<path d="M46.082 0.621536C44.7539 1.10982 43.6211 1.9106 42.3711 3.21919C41.082 4.60591 40.3203 5.79732 38.6992 9.03951C37.0391 12.3793 35.9844 13.8442 34.4609 14.9965C32.9961 16.0903 32.3906 16.4223 27.6055 18.6489C23.1328 20.7192 21.1602 21.8715 19.5781 23.3168L18.3672 24.4301L17.8008 23.9614C13.4648 20.4848 6.60937 23.2387 4.20703 29.4301C2.99609 32.5551 1.51172 38.8833 0.808593 43.9028C-0.207032 51.2661 -0.0898447 58.6684 1.10156 62.2817C2.01953 65.0356 3.99219 67.3989 6.33594 68.5512C7.625 69.1958 7.9375 69.2739 9.30469 69.2739C10.6719 69.2739 11.0039 69.1958 12.2734 68.5512L13.7188 67.8481L15.418 69.4887C18.2695 72.2426 21.7852 74.352 25.6523 75.6215C28.1523 76.4614 29.9492 76.7739 33.0352 76.9301C37.5469 77.145 38.6992 77.5551 43.9141 80.8364C49.4023 84.2543 55.1055 86.7153 59.3828 87.4575C61.668 87.8481 65.0664 87.8481 66.707 87.4379C69.4219 86.7543 71.4141 85.3676 72.3125 83.5317C72.7812 82.5747 72.8203 82.3012 72.7422 80.8559C72.6641 79.3325 72.332 78.3559 71.2773 76.4028C71.2383 76.3442 72.1172 76.227 73.2109 76.1684C78.582 75.8364 82.4492 73.8637 84.0312 70.6411C84.5195 69.645 84.5977 69.2544 84.5977 67.8286C84.5977 66.4028 84.5195 66.0122 84.0312 65.0161C83.4062 63.7465 81.9023 62.145 80.3789 61.1098L79.3828 60.4458L79.9492 60.3481C80.2422 60.2895 81.0234 60.1723 81.668 60.1137C83.582 59.8989 86.2969 59.1176 87.9375 58.3168C89.8516 57.3989 92 55.3676 92.7617 53.7661C93.875 51.4614 94.207 48.3754 93.5625 46.3833C92.625 43.4926 89.3242 41.2465 84.0312 39.9184L81.9023 39.3715L82.7617 38.7661C83.25 38.4536 83.9727 37.809 84.3828 37.3598C86.8242 34.645 87.0391 29.7817 84.8711 26.3833C83.4844 24.2348 80.8281 22.4965 77.918 21.852C75.6914 21.3637 72.8203 21.4809 63.9336 22.4184C54.793 23.3754 51.4336 23.6879 51.3359 23.6098C51.3164 23.5708 52 22.5942 52.8789 21.4223C57.1562 15.6801 58.1914 10.2309 55.9258 5.42622C55.0273 3.53169 53.3867 1.79341 51.7266 0.99263C50.6133 0.445755 50.1836 0.348099 48.7578 0.289505C47.5078 0.250443 46.8437 0.328568 46.082 0.621536ZM50.2812 4.17622C51.9023 4.97701 53.3281 7.39888 53.5625 9.80122C53.7187 11.5004 53.1914 13.9614 52.2734 15.8364C51.8242 16.7348 50.5156 18.727 49.3437 20.27C48.1719 21.8129 46.9023 23.6489 46.5117 24.3715C45.5156 26.1294 44.6172 28.7661 43.8945 31.9301C43.1133 35.4458 42.5078 36.6176 40.4766 38.6294C37.9375 41.1489 35.6523 42.0473 31.6484 42.0473C29.7539 42.0473 29.4414 42.0864 29.0703 42.4379C28.1328 43.3169 28.3867 44.8012 29.5391 45.2895C30.418 45.6606 33.5625 45.6411 35.4375 45.2504C39.4023 44.4497 42.8203 42.1059 45.125 38.6489C46.1211 37.1254 46.7461 35.5434 47.2148 33.2973C47.6836 30.9731 48.0547 29.5669 48.6016 28.2192L48.9922 27.2036H50.2031C51.7266 27.2036 56.043 26.7934 64.1875 25.895C72.1367 25.0161 76.5312 24.8989 78.2891 25.5629C81.3359 26.7348 82.8203 28.7661 82.8203 31.8129C82.8008 35.2114 80.6914 36.7739 74.4023 38.0239C72.3711 38.434 71.3164 38.5317 68.7383 38.5317C64.1875 38.5317 59.3633 39.0981 58.3281 39.7622C57.4687 40.2895 57.3125 41.559 57.9961 42.3598C58.5625 43.0239 59.0898 43.0434 61.6484 42.5356C63.25 42.2036 64.4023 42.145 69.9492 42.145C76.5508 42.145 78.0742 42.2622 81.9219 43.0434C86.2578 43.9223 89.1484 45.3872 90.0859 47.1645C90.457 47.8676 90.4375 49.7426 90.0469 51.0317C89.4414 53.0434 88.2695 54.2934 86.0039 55.3286C83.3867 56.5004 80.5938 56.8911 74.8906 56.8911C70.9844 56.8911 70.75 56.8715 68.7578 56.3051C64.793 55.1918 59.3828 54.3325 54.7148 54.0395C52.5664 53.9223 52.5469 53.9223 51.9219 54.4497C51.4336 54.8598 51.2969 55.1137 51.2969 55.6801C51.3164 57.0668 51.8828 57.3793 54.6172 57.5551C65.6914 58.2778 76.8047 61.7739 80.1836 65.602C82.4102 68.1411 80.6914 70.9731 76.1797 72.2231C74.7148 72.6333 70.3398 72.8286 68.6797 72.5551C67.6445 72.3794 66.9805 72.0864 65.0664 70.934C62.0977 69.1372 58.8164 67.5551 54.6562 65.934C50.8867 64.4692 50.1055 64.352 49.4219 65.1528C48.8555 65.8168 48.7969 66.8325 49.3047 67.3989C49.4805 67.6333 51.082 68.3559 52.9961 69.0981C59.8125 71.6958 64.6562 74.352 66.9023 76.7153C69.2461 79.1958 69.9102 81.4028 68.6797 82.6528C67.7031 83.6098 66.1602 84.0981 63.6602 84.1958C58.8164 84.3715 52.8398 82.2622 45.8477 77.8872C40.1836 74.3325 38.6602 73.7856 33.8555 73.4731C32.1562 73.3754 30.1445 73.1606 29.3828 73.0044C23.1719 71.6958 17.0977 67.5356 14.832 63.0434C14.1484 61.7153 13.8359 60.5434 13.6211 58.6098C13.4258 56.852 13.4648 56.1293 13.9141 53.2387C14.0312 52.4965 13.9727 52.3598 13.4453 51.8129C13.0156 51.3833 12.6641 51.227 12.1953 51.227C10.9062 51.2465 10.418 52.1059 10.1055 54.977C9.8125 57.5356 10.1055 60.3481 10.8867 62.5551C11.668 64.7817 11.668 64.8989 10.8867 65.3676C8.875 66.559 6.29687 65.1528 4.8125 62.0668C2.64453 57.5551 3.5625 43.4145 6.6875 33.102C7.52734 30.3481 8.11328 29.1762 9.24609 27.9653C11.375 25.6801 14.5391 25.3286 16.2188 27.184C16.5312 27.5356 16.5508 27.6919 16.3555 28.4536C15.8477 30.4848 16.375 31.6958 17.7422 31.6958C18.7578 31.6958 19.207 31.2465 19.6562 29.7817C20.7305 26.1684 22.1367 25.0551 30.2031 21.3637C37.1953 18.1411 39.0898 16.3442 42.2344 9.97701C43.7578 6.85201 44.9297 5.28951 46.4141 4.39107C47.7031 3.62935 48.9727 3.55122 50.2812 4.17622Z" fill="white"/>
</svg>
