<svg width="81" height="81" viewBox="0 0 81 81" fill="none" xmlns="http://www.w3.org/2000/svg">
<path d="M64.8557 58.394C68.8111 63.5721 72.3207 74.6402 54.7153 77.4881C32.7085 81.048 28.7171 75.4385 27.8541 74.0361C26.9911 72.6337 26.0202 68.858 27.8541 66.9162C29.3212 65.3628 31.9174 65.1183 33.0321 65.1902C28.0698 65.3341 17.2606 63.8741 13.7223 56.8837C10.1839 49.8934 11.0254 45.341 11.8884 43.9386C9.04763 42.6441 3.12881 38.7605 2.1795 33.5825C0.992862 27.1099 2.07163 22.1476 2.82676 20.4215C3.58189 18.6955 6.17093 16.1065 8.32846 16.538" stroke="#FEFEFE" stroke-width="3.30314" stroke-linecap="round"/>
<path d="M12.1041 44.0474L14.9089 41.5662C15.736 42.2135 17.9726 43.3786 20.3027 42.8608C23.2154 42.2135 27.6383 37.8985 27.3147 36.6039C26.9911 35.3094 31.0904 41.8899 36.1606 40.1639C40.2167 38.783 42.6691 34.698 43.3883 32.8281" stroke="#FEFEFE" stroke-width="3.30314" stroke-linecap="round"/>
<path d="M15.0168 41.6752C13.5425 39.6615 10.3997 34.8574 9.62296 31.7506C8.65208 27.8671 8.1127 19.6685 8.86783 16.6479C9.62296 13.6274 11.6726 8.23356 17.0664 8.34144C21.3815 8.42774 23.9705 9.67197 24.7257 10.2833C24.4739 13.3758 24.1215 20.4453 24.7257 23.9836C25.3298 27.5219 26.7753 33.8004 27.4226 36.4973" stroke="#FEFEFE" stroke-width="3.30314" stroke-linecap="round"/>
<path d="M24.8335 10.3903C26.2 6.86637 30.4577 1.65285 37.3472 1.65234C44.0355 1.65185 49.1057 6.7945 50.1845 8.01712C49.3574 10.2825 46.5167 14.6839 46.5167 17.6181" stroke="#FEFEFE" stroke-width="3.30314" stroke-linecap="round"/>
<path d="M50.1845 8.23375C51.2992 6.97519 54.5823 4.6737 58.8146 4.67383C63.9927 4.67398 68.1998 7.58634 69.1707 9.42023C70.1416 11.2541 71.3283 16.4322 71.0046 17.7267" stroke="#FEFEFE" stroke-width="3.30314" stroke-linecap="round"/>
<path d="M42.3095 47.3921C42.4893 44.6952 44.1003 38.8699 49.1057 37.1439C54.1112 35.4179 56.2975 34.7706 56.7649 34.6627C52.9533 35.1302 44.7259 35.1805 42.3095 31.6422C39.289 27.2193 38.7496 23.3357 40.0441 20.8546C41.3386 18.3734 43.1725 17.4025 47.4876 17.7262C51.8026 18.0498 57.0886 16.971 61.1879 16.2159C65.2872 15.4607 71.6519 16.7553 74.6724 20.8546C77.693 24.9539 81.9001 39.0859 76.0748 47.3921C70.2495 55.6984 60.8642 60.9844 60.217 60.5529" stroke="#FEFEFE" stroke-width="3.30314" stroke-linecap="round"/>
</svg>
