<svg width="100" height="100" viewBox="0 0 100 100" fill="none" xmlns="http://www.w3.org/2000/svg">
<path d="M43.0078 14.082C40.4492 14.3164 35.6836 15.1758 32.832 15.9375C28.7109 17.0117 25.7812 18.2422 22.9492 20.0781C21.6016 20.9765 18.418 23.9648 17.6367 25.0781L17.2266 25.664L16.6016 25.1172C15.2539 23.9843 14.1016 23.5547 12.4023 23.5547C11.0547 23.5351 10.6641 23.6133 9.55078 24.1406C4.55078 26.5234 1.58203 34.5898 0.761717 48.0469C0.214842 57.207 1.66015 64.0039 4.90234 67.4804C6.60156 69.2969 7.77344 69.8242 10.0586 69.8242C11.6016 69.8242 11.9531 69.7461 12.9492 69.2578C13.5742 68.9648 14.1016 68.75 14.1406 68.7695C14.1602 68.8086 14.6094 69.4922 15.1172 70.2734C19.5117 76.9531 28.3008 81.6406 36.4648 81.6406H38.7109L39.9219 82.5586C41.3086 83.5937 44.1016 84.9804 45.8008 85.4492C47.5781 85.9375 51.9336 86.0742 53.5156 85.664C57.168 84.7461 59.9219 82.4023 60.8789 79.375L61.1914 78.3789L62.7148 78.0469C65.6641 77.4219 68.5937 75.4883 69.9805 73.3008C71.7773 70.4687 71.7187 66.7187 69.8242 63.5937C69.4531 62.9687 69.1601 62.4219 69.1797 62.4023C69.2187 62.3828 70.5078 62.5 72.0703 62.6367C76.4258 63.0469 84.7266 63.0273 87.5977 62.6172C92.3047 61.9336 94.6875 61.0742 96.5625 59.3554C100.391 55.8594 100.156 49.082 96.0937 44.9414C93.6914 42.5 90.5859 41.5039 84.082 41.0547L82.1289 40.9179L83.2812 40.3711C86.2695 38.9843 89.1406 36.5429 90.293 34.414C92.6562 30.039 90.6445 24.0625 85.9766 21.6211C80.7617 18.8672 71.4844 19.3164 60.9766 22.8125L58.7891 23.5547L58.0078 21.9726C55.1953 16.1328 50.0586 13.4375 43.0078 14.082ZM48.1445 17.8906C51.5234 18.7109 53.7305 20.7617 55.3516 24.5703C56.2305 26.6601 57.1875 28.0078 60.0391 31.1523C63.5742 35.039 63.6719 35.3711 61.6992 37.1875C58.7305 39.9414 54.5898 40.8203 51.4844 39.375C48.4766 37.9883 45.2734 34.1601 44.8242 31.3867C44.6289 30.3125 43.9648 29.6875 43.0078 29.6875C41.8164 29.6875 41.3477 30.332 41.2891 31.9922C41.25 33.6719 41.0742 34.4336 40.4883 35.6445C39.1211 38.3203 36.543 40.0781 33.1641 40.6054C32.2266 40.7617 31.8359 40.9375 31.5039 41.3086C30.8594 42.0312 30.918 42.8711 31.6602 43.5937C32.2266 44.1797 32.2852 44.1992 33.5742 44.0625C37.207 43.7304 40.9375 41.5234 42.8906 38.5156C43.2812 37.9101 43.6523 37.3633 43.6914 37.3242C43.7305 37.2656 43.9062 37.4414 44.082 37.7148C45.3516 39.5312 47.8906 41.582 50.0977 42.5976C51.0742 43.0468 51.3672 43.2422 51.1914 43.4179C50.8203 43.789 50.9375 44.8633 51.4453 45.4492L51.9336 45.9961L54.5312 45.957C55.957 45.9179 59.8633 45.6836 63.1836 45.4101C72.168 44.6875 75.2344 44.5312 79.9414 44.5312C86.0742 44.5312 89.6875 45.0195 91.9141 46.1328C94.4727 47.4023 96.2109 50.957 95.6836 53.8672C95.0195 57.4609 92.1484 58.8281 84.0625 59.3945C80.4102 59.6484 75.4492 59.4531 68.5937 58.7695L64.5703 58.3594L63.1055 57.4804C60.1367 55.664 56.3867 54.1406 52.6367 53.1836C50 52.539 45.6445 52.3437 43.6719 52.8125C41.7187 53.2812 40.1953 54.1601 38.8477 55.6445C36.3281 58.3984 35.5859 61.289 36.6016 64.3359L37.1289 65.8789L36.1523 66.875C33.6523 69.414 33.3203 72.9492 35.2148 76.7969L35.8594 78.125H35.1953C34.0234 78.125 30.6445 77.3437 28.8281 76.6406C27.8516 76.2695 26.3477 75.5664 25.4883 75.0586C17.6953 70.5859 14.0234 63.3984 15.625 55.7031C15.8594 54.4922 15.9375 53.7109 15.8203 53.4179C15.4102 52.3242 13.8281 51.9726 13.0078 52.8125C12.207 53.5937 11.8164 55.8594 11.8359 59.375C11.8359 61.7578 11.9336 62.6953 12.2461 63.8281C12.6758 65.4101 12.6562 65.4492 11.3867 66.0937C10.0391 66.7773 8.47656 66.3476 7.30469 64.9609C4.41406 61.582 3.47656 53.2226 4.80469 42.539C5.80078 34.4531 8.125 28.75 10.9961 27.3633C12.4219 26.6797 13.4961 26.914 14.5312 28.125C15.1758 28.9062 15.1758 29.1601 14.4336 31.2109C13.3398 34.3164 12.5195 38.7304 12.5 41.5429C12.5 42.6367 12.5391 42.7734 13.1055 43.2422C13.7891 43.8281 14.2383 43.8672 15.0391 43.457C15.7227 43.1054 15.9375 42.4414 16.1133 40.2343C16.4648 35.8008 17.6758 31.6015 19.4531 28.6719C22.8516 23.0859 28.7305 19.9609 39.1406 18.164C43.7305 17.3828 45.7812 17.3242 48.1445 17.8906ZM81.9531 23.8281C85.332 24.6875 87.1289 26.4648 87.6953 29.4531C88.7305 35.0195 80.4687 39.3945 64.8047 41.582C60.8398 42.1484 60.8594 42.1484 62.5781 41.0156C65.6445 38.9648 66.9141 36.7187 66.4062 34.2578C66.1133 32.8711 65.0977 31.3867 62.7148 28.8476C61.6406 27.6758 60.7422 26.6992 60.7422 26.6601C60.7422 26.5234 64.9023 25.2343 66.9922 24.7265C73.0469 23.2617 78.4766 22.9492 81.9531 23.8281ZM50.957 56.4453C53.6133 56.9922 55.5469 57.6562 58.3789 59.0039C62.8125 61.1328 65.9766 63.6328 67.0898 65.9179C68.2812 68.3398 67.8711 70.8008 66.0156 72.539C63.3203 75.0586 59.2773 75.4883 54.1016 73.8086C50.4102 72.5976 45.1367 69.375 42.3633 66.6211C40.5469 64.8047 39.8437 63.5937 39.6875 62.1094C39.5703 60.8984 39.8828 60.0195 40.918 58.6328C41.8359 57.3633 42.793 56.6797 44.1406 56.3281C45.5273 55.9375 48.7891 55.9961 50.957 56.4453ZM44.6094 72.8711C48.4961 75.4883 52.5977 77.3047 56.1133 77.9687C57.6562 78.2617 57.7344 78.457 56.7773 79.7265C56.0547 80.6836 54.6094 81.7187 53.5547 82.0508C53.1641 82.1679 51.8945 82.3242 50.7422 82.3633C48.125 82.4804 46.3281 82.1289 44.082 81.0156C40.8203 79.3945 37.8125 75.5469 37.5586 72.6562C37.4219 71.2304 37.8516 69.9609 38.7109 69.2383L39.2969 68.75L40.7812 70.039C41.6016 70.7422 43.3203 72.0312 44.6094 72.8711Z" fill="white"/>
</svg>
