<svg width="221" height="174" viewBox="0 0 221 174" fill="none" xmlns="http://www.w3.org/2000/svg">
<path d="M111.934 168.852C153.422 167.977 186.917 160.77 186.748 152.755C186.578 144.74 152.808 138.952 111.319 139.826C69.8312 140.701 36.3358 147.908 36.5054 155.923C36.675 163.938 70.4453 169.726 111.934 168.852Z" fill="#6C63FF" fill-opacity="0.1"/>
<path opacity="0.7" d="M111.934 168.852C153.422 167.977 186.917 160.77 186.748 152.755C186.578 144.74 152.808 138.952 111.319 139.826C69.8312 140.701 36.3358 147.908 36.5054 155.923C36.675 163.938 70.4453 169.726 111.934 168.852Z" fill="white" fill-opacity="0.1"/>
<path d="M194.922 105.926C194.922 105.926 218.611 83.6128 205.595 53.9848C201.98 45.7522 196.132 38.6968 188.859 33.3919C172.561 21.5208 131.353 -1.96664 69.3484 7.10422C62.6881 8.05326 56.3155 10.442 50.6756 14.1036C41.5754 20.0633 31.9288 31.0095 36.031 49.7755C37.4809 56.4003 37.1541 63.3181 34.7546 69.6702C32.3857 75.9663 27.8982 83.6842 19.5458 92.0136C19.5458 92.0136 1.74859 109.174 19.0634 124.027C22.7632 127.167 27.1386 129.414 31.8497 130.593C53.4478 136.104 140.744 154.409 194.922 105.926Z" fill="#6C63FF" fill-opacity="0.1"/>
<path opacity="0.7" d="M194.922 105.926C194.922 105.926 218.611 83.6128 205.595 53.9848C201.98 45.7522 196.132 38.6968 188.859 33.3919C172.561 21.5208 131.353 -1.96664 69.3484 7.10422C62.6881 8.05326 56.3155 10.442 50.6756 14.1036C41.5754 20.0633 31.9288 31.0095 36.031 49.7755C37.4809 56.4003 37.1541 63.3181 34.7546 69.6702C32.3857 75.9663 27.8982 83.6842 19.5458 92.0136C19.5458 92.0136 1.74859 109.174 19.0634 124.027C22.7632 127.167 27.1386 129.414 31.8497 130.593C53.4478 136.104 140.744 154.409 194.922 105.926Z" fill="white" fill-opacity="0.1"/>
<path d="M71.4952 158.278C71.4952 158.278 72.4499 159.346 72.4371 159.741C71.1128 160.042 69.7668 160.239 68.4116 160.329C66.6094 160.403 63.8882 159.728 63.4109 159.509C62.9335 159.29 63.0714 158.686 63.0714 158.686C63.0714 158.686 64.5494 158.018 65.6241 158.023C66.6987 158.029 69.6879 158.23 71.4952 158.278Z" fill="#F1F1F1"/>
<path d="M73.328 159.66C73.328 159.66 72.9987 158.696 72.3555 158.248C72.3555 158.248 74.5712 157.873 75.5744 158.607C76.5776 159.341 74.2189 159.578 73.328 159.66Z" fill="#F1F1F1"/>
<path d="M85.8386 155.778C85.8386 155.778 86.704 154.759 86.6555 154.357C85.3025 154.018 83.9263 153.779 82.538 153.643C80.7103 153.508 78.0249 154.087 77.5629 154.29C77.1008 154.494 77.3076 155.098 77.3076 155.098C77.3076 155.098 78.8596 155.812 79.9368 155.842C81.0141 155.873 84.016 155.758 85.8386 155.778Z" fill="#F1F1F1"/>
<path d="M87.5566 154.467C87.5566 154.467 87.3013 155.415 86.704 155.838C86.704 155.838 88.9733 156.286 89.9203 155.583C90.8674 154.88 88.4679 154.579 87.5566 154.467Z" fill="#F1F1F1"/>
<path d="M43.9723 157.631V156.357C44.3275 156.407 44.667 156.536 44.9653 156.735C45.6213 157.211 44.8428 157.481 43.9723 157.631Z" fill="#F1F1F1"/>
<path d="M54.428 155.601C54.428 155.601 55.2092 154.508 55.1275 154.118C53.751 153.887 52.3595 153.758 50.9641 153.73C49.1338 153.73 46.502 154.538 46.0604 154.778C45.6188 155.017 45.8587 155.603 45.8587 155.603C45.8587 155.603 47.4643 156.189 48.539 156.133C49.6137 156.077 52.6105 155.728 54.428 155.601Z" fill="#F1F1F1"/>
<path d="M56.0388 154.154C56.0388 154.154 55.8729 155.117 55.2985 155.589C55.2985 155.589 57.5959 155.844 58.4868 155.079C59.3777 154.315 56.9527 154.195 56.0388 154.154Z" fill="#F1F1F1"/>
<path d="M101.042 159.102C101.042 159.102 102.063 160.095 102.091 160.49C100.793 160.889 99.4646 161.186 98.1195 161.379C96.3327 161.586 93.5605 161.125 93.0704 160.931C92.5802 160.737 92.6696 160.136 92.6696 160.136C92.6696 160.136 94.094 159.372 95.1584 159.285C96.2229 159.198 99.2351 159.196 101.042 159.102Z" fill="#F1F1F1"/>
<path d="M102.972 160.345C102.972 160.345 102.571 159.407 101.898 159.01C101.898 159.01 104.078 158.469 105.134 159.127C106.191 159.784 103.855 160.197 102.972 160.345Z" fill="#F1F1F1"/>
<path d="M114.464 156.35C114.464 156.35 115.391 155.374 115.365 154.979C114.035 154.558 112.675 154.236 111.296 154.016C109.481 153.761 106.765 154.194 106.293 154.367C105.821 154.541 105.979 155.157 105.979 155.157C105.979 155.157 107.485 155.963 108.56 156.057C109.635 156.151 112.647 156.222 114.464 156.35Z" fill="#F1F1F1"/>
<path d="M116.264 155.143C116.264 155.143 115.963 156.075 115.33 156.46C115.33 156.46 117.571 157.041 118.556 156.404C119.542 155.767 117.168 155.308 116.264 155.143Z" fill="#F1F1F1"/>
<path d="M129.908 158.278C129.908 158.278 130.86 159.346 130.85 159.741C129.525 160.042 128.178 160.239 126.822 160.329C125.02 160.403 122.296 159.728 121.819 159.509C121.341 159.29 121.482 158.686 121.482 158.686C121.482 158.686 122.957 158.018 124.034 158.023C125.111 158.029 128.098 158.23 129.908 158.278Z" fill="#F1F1F1"/>
<path d="M131.738 159.66C131.738 159.66 131.409 158.696 130.766 158.248C130.766 158.248 132.981 157.873 133.987 158.607C134.993 159.341 132.629 159.578 131.738 159.66Z" fill="#F1F1F1"/>
<path d="M143.46 157.467C143.46 157.467 144.241 156.371 144.162 155.981C142.785 155.75 141.392 155.621 139.996 155.594C138.166 155.609 135.537 156.401 135.092 156.641C134.648 156.88 134.893 157.467 134.893 157.467C134.893 157.467 136.496 158.053 137.571 157.997C138.646 157.94 141.63 157.602 143.46 157.467Z" fill="#F1F1F1"/>
<path d="M145.061 156.029C145.061 156.029 144.892 156.992 144.32 157.464C144.32 157.464 146.618 157.719 147.506 156.954C148.394 156.19 145.972 156.068 145.061 156.029Z" fill="#F1F1F1"/>
<path d="M158.684 159.216C158.684 159.216 159.639 160.281 159.626 160.679C158.301 160.979 156.954 161.176 155.598 161.267C153.796 161.341 151.072 160.666 150.597 160.444C150.123 160.223 150.258 159.622 150.258 159.622C150.258 159.622 151.736 158.954 152.81 158.959C153.885 158.964 156.874 159.173 158.684 159.216Z" fill="#F1F1F1"/>
<path d="M160.517 160.597C160.517 160.597 160.188 159.631 159.542 159.185C159.542 159.185 161.758 158.811 162.763 159.545C163.769 160.279 161.405 160.523 160.517 160.597Z" fill="#F1F1F1"/>
<path d="M171.616 156.74V158.46C169.799 158.607 167.299 158.895 166.337 158.941C165.26 158.997 163.657 158.414 163.657 158.414C163.657 158.414 163.402 157.828 163.858 157.588C164.315 157.349 166.922 156.554 168.762 156.541C169.717 156.548 170.67 156.615 171.616 156.74Z" fill="#F1F1F1"/>
<path d="M160.976 154.353C160.999 153.281 160.826 152.214 160.466 151.203C160.287 150.694 154.301 152.956 153.717 153.148C151.741 153.8 150.283 154.944 148.581 156.162C147.774 156.74 146.955 157.326 146.028 157.658C145.101 157.989 143.986 158.058 143.016 158.394C142.046 158.73 141.078 159.472 140.974 160.501C143.036 161.158 145.262 161.658 147.355 161.09C149.377 160.542 151.001 159.074 152.854 158.101C154.142 157.445 155.517 156.976 156.938 156.71C156.938 157.11 156.959 157.512 156.971 157.912C158.024 157.911 159.07 157.761 160.08 157.466C160.214 157.437 160.34 157.378 160.448 157.293C160.549 157.188 160.622 157.061 160.663 156.921C160.958 156.099 161.065 155.222 160.976 154.353Z" fill="#6C63FF"/>
<path d="M116.146 152.584C115.25 152.584 114.309 152.549 113.51 152.959C112.534 153.468 111.978 154.488 111.49 155.474C117.479 156.592 123.667 155.872 129.237 153.407C129.285 153.97 129.211 154.537 129.02 155.069C130.486 155.219 131.962 155.267 133.436 155.211C133.593 155.218 133.749 155.188 133.893 155.125C134.063 155.014 134.195 154.853 134.27 154.663C134.662 153.887 134.933 153.055 135.075 152.197C135.147 151.901 135.13 151.589 135.026 151.303C134.824 150.966 134.496 150.723 134.115 150.627C131.544 149.718 128.769 150.831 126.265 151.435C122.952 152.231 119.554 152.617 116.146 152.584Z" fill="#6C63FF"/>
<path d="M105.494 93.3534C102.96 93.2821 100.426 93.2651 97.8924 93.3025C97.5899 93.2701 97.2865 93.355 97.0449 93.5394C96.7896 93.807 96.8305 94.2401 96.9351 94.5994C97.4201 96.2683 99.3908 98.8571 101.39 98.2558C103.452 97.6392 105.078 95.374 105.494 93.3534Z" fill="#F7A48B"/>
<path d="M92.2637 90.3691L103.033 98.6527C103.149 98.7419 103.244 98.8553 103.311 98.9849C103.378 99.1145 103.415 99.2571 103.421 99.4028C103.427 99.5485 103.401 99.6937 103.344 99.8282C103.288 99.9628 103.203 100.083 103.095 100.181C102.916 100.344 102.685 100.437 102.443 100.443C102.201 100.448 101.966 100.366 101.78 100.212L91.2835 91.503L92.2637 90.3691Z" fill="#252525"/>
<path d="M106.518 89.9824C105.589 90.3009 104.307 90.6653 103.488 91.208C102.668 91.7507 101.933 90.5812 101.096 90.3315C100.2 90.0767 99.4087 90.2576 98.4897 90.3901C97.3333 90.5583 96.468 91.1545 95.5311 91.8603C94.5879 92.5652 93.511 93.0715 92.3658 93.3483C91.7609 95.323 96.5854 93.8707 97.198 93.7586C97.849 93.6388 98.3238 93.6108 98.9364 93.8987C100.379 94.579 101.014 94.7115 102.668 94.5586C103.707 95.2389 105.022 95.7715 106.109 94.6402C106.73 93.9955 107.896 93.3662 108.42 92.6986C108.721 92.3036 108.751 92.5712 108.448 91.8323C108.07 90.9048 107.353 90.5099 106.518 89.9824Z" fill="#F9B499"/>
<path d="M96.7717 93.5771C96.1259 94.0867 95.2146 94.4205 94.3977 94.7798C94.2831 94.8287 94.1865 94.912 94.1215 95.0182C94.0564 95.1243 94.0261 95.2481 94.0348 95.3723C94.0436 95.4964 94.0908 95.6148 94.17 95.7109C94.2492 95.807 94.3565 95.8761 94.4769 95.9086C95.9013 96.2831 99.1278 94.8639 98.8164 93.3478C98.311 93.1083 97.2006 93.2357 96.7717 93.5771Z" fill="#F9B499"/>
<path d="M95.6255 95.5499C95.3039 96.0137 95.2095 97.0023 95.6255 97.4329C96.9529 98.8037 99.2606 96.5946 100.006 95.6009C101.499 93.6084 99.1482 94.0721 97.9995 94.6021C97.3205 94.9002 96.5369 95.2187 95.6255 95.5499Z" fill="#F9B499"/>
<path d="M96.856 97.2578C96.7641 100.44 101.875 97.4718 101.451 95.4181C101.104 93.767 99.6205 95.5226 99.1049 95.915C98.5892 96.3074 97.1214 96.5953 96.856 97.2578Z" fill="#F9B499"/>
<path d="M98.819 98.0745C99.6026 100.307 102.778 97.756 102.423 96.0361C102.275 95.3227 101.864 95.0424 101.211 95.5851C100.866 95.8731 100.721 96.3801 100.422 96.7113C100.016 97.1751 98.8343 97.4681 98.819 98.0745Z" fill="#F9B499"/>
<path d="M91.8093 91.85C91.8093 91.85 76.1028 90.4129 70.9489 77.8105L72.7358 74.916C72.7358 74.916 84.8993 75.66 92.6287 90.5887L91.8093 91.85Z" fill="#6C63FF"/>
<path d="M72.4958 78.1602C72.4958 78.1602 81.9407 81.3401 89.734 90.3217C89.7366 90.3217 77.2234 87.8604 72.4958 78.1602Z" fill="#E5E5E5"/>
<g opacity="0.3">
<path d="M77.8998 77.1173C77.3663 76.8625 76.8098 76.6306 76.2176 76.4141L75.0817 78.2665C75.6611 78.4779 76.2559 78.7047 76.8685 78.9468L77.8998 77.1173Z" fill="white"/>
<path d="M78.4155 77.375L77.3586 79.1586C78.7825 79.7397 80.1672 80.4121 81.5042 81.1715L82.053 79.923C80.9527 78.9244 79.7305 78.0683 78.4155 77.375Z" fill="white"/>
<path d="M82.5559 81.81C83.1309 82.1771 83.6849 82.5761 84.2151 83.005L84.6287 82.4954C84.0824 81.8941 83.5591 81.3488 83.0435 80.8418L82.5559 81.81Z" fill="white"/>
</g>
<path d="M111.595 93.4144C110.735 93.8653 109.729 94.0794 108.871 94.5278C108.075 92.7472 107.074 91.0653 105.887 89.5159L108.029 88.2598C109.137 89.9746 110.49 91.6996 111.595 93.4144Z" fill="white"/>
<path d="M139.475 105.421C132.389 109.033 124.278 110.118 116.489 108.496C117.356 101.428 116.422 94.2786 115.493 87.2181C114.62 80.6154 113.749 74.0144 112.879 67.4151C112.519 64.6913 111.373 61.728 111.164 58.9889C110.954 56.2498 112.019 53.0622 114.612 52.1424C116.91 51.3271 119.429 52.6061 121.331 54.14C127.802 59.3583 131.031 67.5349 133.454 75.4795C136.405 85.1415 138.112 95.4099 139.475 105.421Z" fill="#6C63FF"/>
<path opacity="0.2" d="M139.475 105.421C132.389 109.033 124.278 110.118 116.489 108.496C117.356 101.428 116.422 94.2786 115.493 87.2181C114.62 80.6154 113.749 74.0144 112.879 67.4151C112.519 64.6913 111.373 61.728 111.164 58.9889C110.954 56.2498 112.019 53.0622 114.612 52.1424C116.91 51.3271 119.429 52.6061 121.331 54.14C127.802 59.3583 131.031 67.5349 133.454 75.4795C136.405 85.1415 138.112 95.4099 139.475 105.421Z" fill="black"/>
<path d="M135.922 94.3324C134.039 102.881 132.906 111.577 132.535 120.322C132.417 123.069 132.376 125.826 132.047 128.555C131.613 132.155 130.687 135.689 129.762 139.182C128.741 143.089 127.712 146.996 126.674 150.903C128.736 151.477 130.836 151.902 132.958 152.177C134.515 152.387 136.09 152.415 137.653 152.261C141.974 151.751 145.852 149.137 150.186 148.758C150.163 141.666 150.14 134.57 149.752 127.489C149.472 122.504 149.016 117.531 148.384 112.571C147.899 108.782 147.302 104.993 146.263 101.316C145.811 99.7214 145.257 98.1136 144.221 96.809C142.421 94.5159 138.725 93.4967 135.922 94.3324Z" fill="#252525"/>
<path opacity="0.2" d="M135.922 94.3324C134.039 102.881 132.906 111.577 132.535 120.322C132.417 123.069 132.376 125.826 132.047 128.555C131.613 132.155 130.687 135.689 129.762 139.182C128.741 143.089 127.712 146.996 126.674 150.903C128.736 151.477 130.836 151.902 132.958 152.177C134.515 152.387 136.09 152.415 137.653 152.261C141.974 151.751 145.852 149.137 150.186 148.758C150.163 141.666 150.14 134.57 149.752 127.489C149.472 122.504 149.016 117.531 148.384 112.571C147.899 108.782 147.302 104.993 146.263 101.316C145.811 99.7214 145.257 98.1136 144.221 96.809C142.421 94.5159 138.725 93.4967 135.922 94.3324Z" fill="black"/>
<path opacity="0.2" d="M148.841 116.403C148.7 115.124 148.548 113.85 148.384 112.581C147.899 108.792 147.302 105.003 146.263 101.326C145.811 99.7312 145.257 98.1234 144.221 96.8188C142.413 94.5256 138.717 93.5064 135.914 94.3422C135.011 98.4495 134.28 102.591 133.722 106.766C137.964 111.075 143.189 114.201 148.841 116.403Z" fill="black"/>
<path d="M165.385 149.86L160.415 152.066C159.491 152.476 158.567 152.887 157.607 153.213C155.289 154.007 152.824 154.281 150.388 154.015C149.524 151.213 148.657 148.41 147.789 145.607C147.169 143.602 146.549 141.594 146.128 139.54C145.592 136.941 145.377 134.286 145.163 131.641L143.47 110.674C148.831 105.522 154.728 101.621 161.709 99.0627C162.368 98.8079 163.075 98.5914 163.751 98.7442C165.204 104.929 165.249 111.36 163.881 117.564C163.427 119.602 162.827 121.62 162.559 123.694C162.123 127.073 162.577 130.495 163.034 133.868C163.726 139.038 164.688 144.69 165.385 149.86Z" fill="#252525"/>
<path opacity="0.2" d="M163.641 118.568C163.723 118.234 163.802 117.9 163.876 117.564C165.25 111.362 165.211 104.93 163.764 98.7447C163.08 98.5918 162.373 98.8211 161.722 99.0632C154.74 101.611 148.839 105.522 143.483 110.674L143.994 116.981C150.431 117.987 157.068 118.718 163.641 118.568Z" fill="black"/>
<path d="M123.72 79.3313C124.371 84.4732 123.537 90.331 120.563 91.8165C117.589 93.302 114.127 93.8549 110.834 94.2982C109.533 92.2089 108.19 90.3157 106.885 88.2264C110.372 85.1943 115.59 82.5444 116.409 78.0013C116.994 74.7333 116.861 71.3776 116.019 68.166C119.623 73.6926 120.662 73.476 123.72 79.3313Z" fill="#252525"/>
<path opacity="0.2" d="M123.72 79.3313C124.371 84.4732 123.537 90.331 120.563 91.8165C117.589 93.302 114.127 93.8549 110.834 94.2982C109.533 92.2089 108.19 90.3157 106.885 88.2264C110.372 85.1943 115.59 82.5444 116.409 78.0013C116.994 74.7333 116.861 71.3776 116.019 68.166C119.623 73.6926 120.662 73.476 123.72 79.3313Z" fill="black"/>
<path d="M135.069 89.8694C133.283 91.5943 130.768 92.4556 128.282 92.397C126.204 86.72 122.625 81.7413 119.391 76.63C116.157 71.5187 113.18 66.0201 112.542 60.0094C112.381 58.4806 111.194 57.1251 111.072 55.5912C110.949 54.0573 111.475 52.3731 112.764 51.5144C114.053 50.6557 115.904 50.8697 117.267 51.6749C118.63 52.4801 119.628 53.7643 120.547 55.0536C127.843 65.2965 131.657 77.7817 135.069 89.8694Z" fill="#252525"/>
<path d="M119.557 70.6989C119.276 65.4602 118.931 59.9973 116.297 55.4568C115.72 54.4631 114.977 53.4795 113.903 53.0719C109.193 51.2883 112.019 59.368 112.703 61.1031C114.158 64.8182 116.513 68.1151 119.557 70.6989Z" fill="white"/>
<path d="M110.385 52.6286C109.626 55.0654 109.48 57.6515 109.961 60.1579C111.325 67.1853 113.612 74.6815 114.526 81.7802C116.632 71.899 115.102 60.6573 110.487 51.668C110.482 51.9905 110.448 52.312 110.385 52.6286Z" fill="#6C63FF"/>
<path opacity="0.4" d="M110.385 52.6286C109.626 55.0654 109.48 57.6515 109.961 60.1579C111.325 67.1853 113.612 74.6815 114.526 81.7802C116.632 71.899 115.102 60.6573 110.487 51.668C110.482 51.9905 110.448 52.312 110.385 52.6286Z" fill="black"/>
<path d="M113.438 36.2749C113.438 36.2749 109.053 40.3211 106.579 40.074C104.106 39.8268 105.208 34.7996 105.208 34.7996C105.208 34.7996 110.735 34.3129 113.438 36.2749Z" fill="#6C63FF"/>
<path opacity="0.2" d="M113.438 36.2749C113.438 36.2749 109.053 40.3211 106.579 40.074C104.106 39.8268 105.208 34.7996 105.208 34.7996C105.208 34.7996 110.735 34.3129 113.438 36.2749Z" fill="black"/>
<path d="M105.591 56.7763C110.384 54.0139 111.3 46.6392 107.636 40.3045C103.971 33.9698 97.1154 31.0738 92.322 33.8362C87.5287 36.5985 86.6132 43.9732 90.2773 50.3079C93.9413 56.6427 100.797 59.5386 105.591 56.7763Z" fill="#F9B499"/>
<path d="M96.0059 58.5229L95.8834 57.7585C96.0773 58.0216 96.3242 58.2412 96.6084 58.4031L96.6441 57.7406C96.7651 57.8648 96.9157 57.9562 97.0819 58.0061C97.248 58.056 97.4242 58.0629 97.5937 58.026C97.9321 57.9468 98.2542 57.8097 98.5458 57.6209C98.7935 57.4965 99.0133 57.3231 99.1917 57.1113C99.2777 57.0048 99.3296 56.8749 99.3405 56.7385C99.3514 56.6021 99.3209 56.4657 99.2529 56.3469L100.062 57.096L99.6027 55.7455L100.169 56.3341C100.353 56.5498 100.581 56.7236 100.838 56.8437C100.968 56.8991 101.112 56.9122 101.249 56.8811C101.387 56.85 101.511 56.7763 101.604 56.6705C101.859 56.3112 101.54 55.8322 101.211 55.5417C100.411 54.8506 99.4618 54.3534 98.4376 54.0891C97.4133 53.8248 96.3417 53.8005 95.3065 54.018C94.9313 54.097 93.9306 54.3034 93.7468 54.6881C93.6217 54.9429 93.9434 55.6895 94.0506 55.9621C94.2566 56.4679 94.5287 56.9443 94.8598 57.3788C95.0436 57.603 95.9804 58.2884 96.0059 58.5229Z" fill="#252525"/>
<path d="M92.2867 41.1712C92.7462 42.249 93.4277 43.3191 94.4973 43.8007C95.1916 44.1116 95.9753 44.1421 96.736 44.1421C97.6498 44.1421 98.5628 44.109 99.475 44.0428C100.751 45.4289 101.846 46.8889 102.556 48.6292C103.25 48.2164 104.044 47.6788 104.741 47.266C104.021 45.7041 103.416 44.0326 102.699 42.4732C104.688 43.9332 107.549 44.2721 109.869 43.4389C108.353 40.2896 106.446 37.3594 103.963 34.9082L92.2867 41.1712Z" fill="#252525"/>
<path d="M103.564 43.7191C102.93 42.861 102.406 41.9261 102.007 40.9367C101.79 40.4041 102.155 39.6907 102.398 39.1684C102.512 38.9024 102.684 38.6653 102.902 38.4744C103.12 38.2835 103.377 38.1436 103.656 38.0651C103.923 38.0357 104.192 38.1066 104.409 38.2638C105.397 39.2473 105.665 40.7252 105.813 42.1113C105.895 42.6714 105.895 43.2405 105.813 43.8006C105.73 44.3664 105.428 44.877 104.971 45.2224C104.434 44.7894 103.961 44.2833 103.564 43.7191Z" fill="#F7B595"/>
<path d="M106.571 35.7487C106.571 35.7487 111.228 35.5398 113.438 36.2762C113.438 36.2762 111.843 33.2186 104.593 33.3332C97.3435 33.4479 106.571 35.7487 106.571 35.7487Z" fill="#6C63FF"/>
<path d="M106.571 35.7489C98.6351 36.7503 91.1277 42.5903 88.8303 50.2394C88.0926 49.9846 87.5132 49.2762 86.9107 48.7743C85.0983 47.2684 82.5355 46.1142 82.3006 43.7726C81.9228 40.0041 82.8699 36.2432 83.8067 32.5741C86.1041 30.5587 88.5827 28.1304 91.5872 27.5418C95.1303 26.8513 98.6939 28.3572 101.987 29.835C103.24 30.3981 104.231 31.504 105.012 32.6021C105.152 32.8034 106.702 35.7311 106.571 35.7489Z" fill="#6C63FF"/>
<path opacity="0.3" d="M106.571 35.7489C98.6351 36.7503 91.1277 42.5903 88.8303 50.2394C88.0926 49.9846 87.5132 49.2762 86.9107 48.7743C85.0983 47.2684 82.5355 46.1142 82.3006 43.7726C81.9228 40.0041 82.8699 36.2432 83.8067 32.5741C86.1041 30.5587 88.5827 28.1304 91.5872 27.5418C95.1303 26.8513 98.6939 28.3572 101.987 29.835C103.24 30.3981 104.231 31.504 105.012 32.6021C105.152 32.8034 106.702 35.7311 106.571 35.7489Z" fill="white"/>
<path d="M101.987 29.8361C98.6939 28.3557 95.1304 26.8499 91.5873 27.5429C90.0225 27.8487 88.6032 28.6564 87.2758 29.6425C86.5286 30.6601 85.8693 31.7392 85.3051 32.8682C84.0441 35.4417 83.4008 38.405 84.0058 41.2078C84.6925 44.3801 86.8418 46.9612 89.1418 49.3155C90.8495 44.5992 94.5407 40.6524 99.0283 38.219C97.9501 34.9969 96.6643 31.8479 95.1789 28.7914C97.415 29.6408 99.6392 30.5045 101.852 31.3827C102.967 31.8286 104.088 32.2873 105.155 32.8377C105.086 32.7153 105.037 32.6313 105.017 32.6032C104.231 31.5051 103.24 30.3992 101.987 29.8361Z" fill="#6C63FF"/>
<path d="M95.1789 28.793C96.6643 31.8494 97.9501 34.9985 99.0283 38.2205C101.368 36.9383 103.926 36.1019 106.571 35.7541C106.681 35.7388 105.55 33.5806 105.15 32.8443C104.083 32.2939 102.962 31.8251 101.846 31.3894C99.6376 30.5078 97.415 29.6423 95.1789 28.793Z" fill="#6C63FF"/>
<path opacity="0.2" d="M94.1425 41.8529C92.9963 39.417 91.0308 37.4678 88.9861 35.7122C88.1207 34.9656 87.1558 34.214 86.0173 34.1121C85.0933 34.0305 84.0084 34.4255 83.5821 35.2485C85.5323 36.1989 87.235 37.0881 88.9682 38.4691C89.8234 39.152 90.6504 39.8705 91.5592 40.482C91.9855 40.7674 93.9791 41.5012 94.1425 41.8529Z" fill="black"/>
<path d="M86.9108 48.7747L87.6408 54.6682C87.6408 54.6682 89.4992 52.4158 89.9229 47.4727C89.9229 47.4727 88.0212 47.5415 86.9108 48.7747Z" fill="#6C63FF"/>
<path d="M100.588 37.5502C98.6411 39.426 96.3846 40.9526 93.9178 42.0627C91.9625 40.1568 89.7264 37.8381 87.1839 36.8317C86.5282 36.5814 85.8603 36.3646 85.1826 36.1819L82.9312 35.5424C82.8716 34.1083 83.1332 32.679 83.697 31.3586C84.1462 30.2935 85.4557 29.6285 86.3798 28.9354C88.4373 27.4066 91.8349 27.0677 94.3901 27.3582C95.5184 28.9915 100.432 36.0622 100.805 37.0839C100.802 36.9845 100.596 37.6598 100.588 37.5502Z" fill="#6C63FF"/>
<path opacity="0.3" d="M100.588 37.5502C98.6411 39.426 96.3846 40.9526 93.9178 42.0627C91.9625 40.1568 89.7264 37.8381 87.1839 36.8317C86.5282 36.5814 85.8603 36.3646 85.1826 36.1819L82.9312 35.5424C82.8716 34.1083 83.1332 32.679 83.697 31.3586C84.1462 30.2935 85.4557 29.6285 86.3798 28.9354C88.4373 27.4066 91.8349 27.0677 94.3901 27.3582C95.5184 28.9915 100.432 36.0622 100.805 37.0839C100.802 36.9845 100.596 37.6598 100.588 37.5502Z" fill="white"/>
<path d="M94.3977 27.3673C94.0276 27.3265 93.6319 27.2985 93.2388 27.2832C92.5698 27.3749 91.9079 27.5128 91.258 27.696C88.7563 28.4018 86.4079 29.9025 85.0779 32.132C86.9863 30.3647 89.3347 29.1407 91.8783 28.5878C89.2745 30.3179 86.584 32.155 85.0065 34.838C88.0697 34.9476 90.4207 37.4803 92.3964 39.8219C92.9974 40.512 93.5614 41.2332 94.0863 41.9826C96.4874 40.8794 98.6853 39.3806 100.588 37.5491C100.588 37.651 100.774 37.0751 100.807 37.0828C100.409 36.0254 95.5209 28.9955 94.3977 27.3673Z" fill="#6C63FF"/>
<path d="M114.426 56.1169C112.414 55.5742 110.321 55.3398 108.243 55.164C108.652 50.3007 109.059 45.4366 109.464 40.5716C110.74 40.4417 111.965 40.4391 113.193 40.8111C114.413 45.609 114.709 51.1738 114.426 56.1169Z" fill="white"/>
<path d="M112.09 46.914C111.986 49.3626 111.947 51.8928 112.856 54.1656C113.765 56.4384 115.886 58.4055 118.342 58.3953L115.072 43.78C114.86 42.8372 114.643 41.8741 114.148 41.0434C113.109 39.293 111.764 39.2446 111.998 41.4103C112.168 43.24 112.199 45.0798 112.09 46.914Z" fill="#402C35"/>
<path d="M113.451 40.5391C113.86 46.1921 113.899 51.8658 113.568 57.524C120.925 65.54 126.482 74.9701 130.27 85.1621C134.059 95.3541 136.512 105.982 138.949 116.574C144.89 117.241 150.102 113.878 154.776 110.158C159.45 106.438 163.841 102.086 169.454 100.032C167.815 92.7984 166.179 85.315 163.371 78.4558C161.296 73.4158 158.84 68.4014 154.98 64.5488C151.475 61.053 147.008 58.7088 142.615 56.4207C132.953 51.3884 123.103 45.5714 113.451 40.5391Z" fill="#6C63FF"/>
<mask id="mask0_5541_1265" style="mask-type:luminance" maskUnits="userSpaceOnUse" x="113" y="40" width="52" height="46">
<path style="mix-blend-mode:multiply" d="M163.371 78.4558C161.296 73.4158 158.84 68.4014 154.98 64.5488C151.475 61.053 147.008 58.7088 142.615 56.4207C132.966 51.3884 123.115 45.5714 113.464 40.5391C113.744 44.4018 113.85 48.2705 113.78 52.1452C114.51 53.3198 115.248 54.4944 115.983 55.6818C117.466 58.0947 119.764 59.8783 122.018 61.6135C124.68 63.6647 127.378 65.7362 130.441 67.1095C132.813 68.1746 135.355 68.7989 137.811 69.6575C145.892 72.5257 152.838 77.9079 157.625 85.0118C159.885 83.6528 162.083 82.203 164.221 80.6623C163.943 79.9234 163.659 79.1845 163.371 78.4558Z" fill="url(#paint0_linear_5541_1265)"/>
</mask>
<g mask="url(#mask0_5541_1265)">
<path opacity="0.1" d="M163.371 78.4558C161.296 73.4158 158.84 68.4014 154.98 64.5488C151.475 61.053 147.008 58.7088 142.615 56.4207C132.966 51.3884 123.115 45.5714 113.464 40.5391C113.744 44.4018 113.85 48.2705 113.78 52.1452C114.51 53.3198 115.248 54.4944 115.983 55.6818C117.466 58.0947 119.764 59.8783 122.018 61.6135C124.68 63.6647 127.378 65.7362 130.441 67.1095C132.813 68.1746 135.355 68.7989 137.811 69.6575C145.892 72.5257 152.838 77.9079 157.625 85.0118C159.885 83.6528 162.083 82.203 164.221 80.6623C163.943 79.9234 163.659 79.1845 163.371 78.4558Z" fill="white"/>
</g>
<path d="M124.348 70.9329C125.017 70.3978 125.073 69.4678 124.729 68.7391C124.384 68.0104 123.723 67.4345 123.074 66.8791C122.426 66.3236 121.762 65.7375 121.431 65.0114C121.099 64.2852 121.175 63.3501 121.847 62.8252C121.89 62.791 121.944 62.7741 121.999 62.7779C122.053 62.7816 122.105 62.8058 122.143 62.8456C121.923 63.4877 121.704 64.1884 122.007 64.805C122.357 65.5108 123.261 65.8548 123.999 66.2879C125.665 67.2663 126.699 69.185 125.969 70.8004C125.902 70.9881 125.787 71.1555 125.637 71.2866C125.486 71.4177 125.304 71.5082 125.109 71.5495C124.685 71.5979 124.034 71.1852 124.348 70.9329Z" fill="#252525"/>
<path d="M120.764 72.404C121.825 73.9503 123.366 75.1053 125.15 75.691C125.632 75.8732 126.151 75.9378 126.664 75.8795C126.919 75.8459 127.16 75.7458 127.364 75.5893C127.568 75.4327 127.727 75.2252 127.825 74.9877C128.032 74.3711 127.679 73.7137 127.33 73.1684C126.639 72.083 125.916 71.0171 125.163 69.9707L120.764 72.404Z" fill="#6C63FF"/>
<path opacity="0.3" d="M120.764 72.404C121.825 73.9503 123.366 75.1053 125.15 75.691C125.632 75.8732 126.151 75.9378 126.664 75.8795C126.919 75.8459 127.16 75.7458 127.364 75.5893C127.568 75.4327 127.727 75.2252 127.825 74.9877C128.032 74.3711 127.679 73.7137 127.33 73.1684C126.639 72.083 125.916 71.0171 125.163 69.9707L120.764 72.404Z" fill="white"/>
<path d="M135.1 70.9344C134.59 71.3523 132.833 72.1014 132.233 71.8339C131.761 71.6249 131.682 70.9038 131.169 70.7076C130.189 70.3382 128.999 71.151 128.131 71.472C127.35 71.7574 125.163 71.3752 125.305 72.3715C125.487 73.6455 128.2 73.8417 129.203 73.8009C128.001 74.2952 126.88 74.922 125.683 75.3552C124.2 74.7564 123.455 73.9334 121.762 74.1423C121.492 75.2354 123.508 75.745 124.118 76.4177C124.478 76.8152 124.573 77.2534 125.124 77.4038C125.561 77.521 126.717 77.4038 127.166 77.2356C127.422 78.1631 128.172 78.1325 128.969 78.135C129.374 78.135 129.556 78.6829 129.949 78.7899C130.268 78.8791 130.671 78.6829 131.016 78.7058C132.915 78.8383 133.941 76.8152 135.029 76.1731C135.771 75.7323 136.943 74.8991 137.732 74.7156C137.441 73.7321 135.159 71.1281 135.1 70.9344Z" fill="#F9B499"/>
<g opacity="0.3">
<path d="M125.163 69.9707L120.764 72.404C120.964 72.695 121.181 72.9732 121.415 73.2372C122.848 72.3981 124.311 71.6142 125.803 70.8854C125.591 70.5797 125.38 70.2714 125.163 69.9707Z" fill="white"/>
</g>
<path d="M139.731 74.6555C138.911 75.025 137.977 75.504 137.158 75.8709C136.226 74.1077 135.258 72.505 134.327 70.7418L137.002 69.6895C138.028 71.2692 138.704 73.0808 139.731 74.6555Z" fill="white"/>
<path d="M153.416 72.4479C149.2 74.854 144.417 76.0909 139.562 76.0304C138.112 73.9283 136.443 71.974 135.271 69.7063C137.704 68.0043 140.033 66.1588 142.245 64.1797C146.794 65.3416 151.297 68.2667 153.416 72.4479Z" fill="#252525"/>
<path d="M166.993 76.6327L162.322 65.5948C161.066 62.6213 159.736 59.5484 157.324 57.4004C154.26 54.6792 149.982 53.8893 146.347 51.9808C140.841 49.0838 136.964 43.6642 131.368 40.9429C125.461 38.0713 118.679 38.6625 112.136 39.2561C114.663 44.082 112.478 50.2329 114.551 55.2703C115.955 58.677 119.161 61.0823 122.61 62.4047C126.058 63.7271 129.783 64.0813 133.451 64.4889C137.119 64.8966 140.854 65.3756 144.211 66.8866C150.812 69.8474 155.057 76.2658 158.939 82.3606C161.839 81.0407 164.933 79.0329 166.993 76.6327Z" fill="#6C63FF"/>
<path opacity="0.4" d="M166.993 76.6327L162.322 65.5948C161.066 62.6213 159.736 59.5484 157.324 57.4004C154.26 54.6792 149.982 53.8893 146.347 51.9808C140.841 49.0838 136.964 43.6642 131.368 40.9429C125.461 38.0713 118.679 38.6625 112.136 39.2561C114.663 44.082 112.478 50.2329 114.551 55.2703C115.955 58.677 119.161 61.0823 122.61 62.4047C126.058 63.7271 129.783 64.0813 133.451 64.4889C137.119 64.8966 140.854 65.3756 144.211 66.8866C150.812 69.8474 155.057 76.2658 158.939 82.3606C161.839 81.0407 164.933 79.0329 166.993 76.6327Z" fill="black"/>
<g opacity="0.2">
<path d="M119.429 56.566C121.403 55.6344 123.257 54.4683 124.951 53.0931C123.562 51.9159 122.824 50.1654 122.143 48.4812L118.176 38.7988C116.169 38.8804 114.15 39.0536 112.154 39.2422C114.681 44.0681 112.496 50.2189 114.569 55.2563C115.973 58.663 119.179 61.0683 122.628 62.3907C124.818 63.2239 127.12 63.6647 129.451 63.9985C125.724 62.0722 122.273 59.7484 119.429 56.566Z" fill="black"/>
</g>
<path d="M111.587 38.5334C111.695 42.8446 111.575 48.3203 112.826 52.448C114.076 56.5758 116.524 59.404 120.376 61.366C118.937 59.7659 118.293 57.437 118.237 55.289C119.738 55.0572 121.277 54.2163 122.431 53.2328C120.389 48.4502 118.602 43.3466 117.596 38.248L111.587 38.5334Z" fill="#6C63FF"/>
<path opacity="0.3" d="M111.587 38.5334C111.695 42.8446 111.575 48.3203 112.826 52.448C114.076 56.5758 116.524 59.404 120.376 61.366C118.937 59.7659 118.293 57.437 118.237 55.289C119.738 55.0572 121.277 54.2163 122.431 53.2328C120.389 48.4502 118.602 43.3466 117.596 38.248L111.587 38.5334Z" fill="white"/>
<path opacity="0.2" d="M127.506 59.6513C132.08 60.3622 136.67 58.8869 141.232 58.1047C145.793 57.3225 151.006 57.3964 154.391 60.5457C151.072 59.7354 147.128 58.9201 143.708 59.1519C142.362 59.2437 141.033 59.4985 139.7 59.715C135.588 60.3877 131.414 61.096 127.506 59.6513Z" fill="black"/>
<path opacity="0.2" d="M149.865 55.6244C147.879 55.0885 145.796 55.0135 143.777 55.4052C140.369 56.0703 137.255 58.0475 133.791 58.236C138.324 57.3748 143.2 56.7225 147.736 55.8613C148.486 55.7186 149.155 55.3364 149.865 55.6244Z" fill="black"/>
<path opacity="0.2" d="M158.069 74.7664C155.942 71.0461 153.028 67.8333 149.53 65.3516C151.572 66.177 153.401 67.4526 154.88 69.083C156.358 70.7133 157.449 72.6562 158.069 74.7664Z" fill="black"/>
<mask id="mask1_5541_1265" style="mask-type:luminance" maskUnits="userSpaceOnUse" x="44" y="78" width="62" height="77">
<path style="mix-blend-mode:multiply" d="M72.4984 78.1602L44.5211 154.116H105.642L89.7366 90.3217L72.4984 78.1602Z" fill="url(#paint1_linear_5541_1265)"/>
</mask>
<g mask="url(#mask1_5541_1265)">
<path opacity="0.5" d="M72.4984 78.1602L44.5211 154.116H105.642L89.7366 90.3217L72.4984 78.1602Z" fill="#E5E5E5"/>
</g>
<path d="M98.4999 94.3887C97.5995 95.1082 96.5641 95.641 95.4546 95.9557" stroke="#F7A48B" stroke-miterlimit="10"/>
<path d="M100.463 94.8262C99.4789 96.0307 98.2824 97.0454 96.9326 97.8201" stroke="#F7A48B" stroke-miterlimit="10"/>
<path d="M98.9849 98.4424C98.9849 98.4424 100.795 97.4003 101.443 95.418" stroke="#F7A48B" stroke-miterlimit="10"/>
<defs>
<linearGradient id="paint0_linear_5541_1265" x1="138.858" y1="65.8381" x2="144.245" y2="88.6496" gradientUnits="userSpaceOnUse">
<stop stop-color="white"/>
<stop offset="1"/>
</linearGradient>
<linearGradient id="paint1_linear_5541_1265" x1="91.4596" y1="88.0744" x2="82.2788" y2="125.235" gradientUnits="userSpaceOnUse">
<stop stop-color="white"/>
<stop offset="1"/>
</linearGradient>
</defs>
</svg>
